# xmcd CD database file
#
# Track frame offsets:
#	150
#	13916
#	26779
#	38402
#	50148
#	65811
#	81890
#	96568
#	112403
#	124077
#	142441
#	158487
#	173735
#	188792
#
# Disc length: 2717 seconds
#
# Revision: 0
# Processed by: cddbd v1.5.2PL0 Copyright (c) Steve Scherf et al.
# Submitted via: CDex 1.81
#
DISCID=d10a9b0e
DTITLE=Don Latarski - Fab 4 on 6
DYEAR=2003
DGENRE=Jazz
TTITLE0=Blackbird
TTITLE1=And I Love Her
TTITLE2=Nowhere Man
TTITLE3=Magical Mystery Tour
TTITLE4=Fool On The Hill
TTITLE5=Let It Be
TTITLE6=Mother Nature's Son
TTITLE7=Michelle
TTITLE8=With A Little Help From My Friends
TTITLE9=Something
TTITLE10=Till There Was You
TTITLE11=Norwegian Wood
TTITLE12=Yesterday
TTITLE13=I Will
EXTD=YEAR: 2003
EXTT0=
EXTT1=
EXTT2=
EXTT3=
EXTT4=
EXTT5=
EXTT6=
EXTT7=
EXTT8=
EXTT9=
EXTT10=
EXTT11=
EXTT12=
EXTT13=
PLAYORDER=
